<?xml version="1.0" encoding="utf-8"?>


<svg xmlns="http://www.w3.org/2000/svg" viewBox="0 0 1440 320"><path fill="#151030" fill-opacity="1" d="M0,128L18.5,154.7C36.9,181,74,235,111,229.3C147.7,224,185,160,222,122.7C258.5,85,295,75,332,106.7C369.2,139,406,213,443,240C480,267,517,245,554,202.7C590.8,160,628,96,665,64C701.5,32,738,32,775,37.3C812.3,43,849,53,886,74.7C923.1,96,960,128,997,138.7C1033.8,149,1071,139,1108,112C1144.6,85,1182,43,1218,48C1255.4,53,1292,107,1329,138.7C1366.2,171,1403,181,1422,186.7L1440,192L1440,320L1421.5,320C1403.1,320,1366,320,1329,320C1292.3,320,1255,320,1218,320C1181.5,320,1145,320,1108,320C1070.8,320,1034,320,997,320C960,320,923,320,886,320C849.2,320,812,320,775,320C738.5,320,702,320,665,320C627.7,320,591,320,554,320C516.9,320,480,320,443,320C406.2,320,369,320,332,320C295.4,320,258,320,222,320C184.6,320,148,320,111,320C73.8,320,37,320,18,320L0,320Z"></path></svg>

